<svg xmlns="http://www.w3.org/2000/svg" xmlns:xlink="http://www.w3.org/1999/xlink" width="1000" height="700" version="1.1">
<style type="text/css">
.l0{
  fill: #000000;
  stroke: #000000;
  stroke-linecap:round;
  stroke-linejoin:round;
  stroke-width: 3.0555;
}
.l1{
  fill: #00ccee;
  stroke: #00ccee;
  stroke-linecap:round;
  stroke-linejoin:round;
  stroke-width: 3.0555;
}
.l2{
  fill: #4f4f4f; fill-opacity: 0.2;
  stroke: #4f4f4f;
  stroke-linecap:round;
  stroke-linejoin:round;
  stroke-width: 3.0555;
}
.l3{
  fill: #cccccc; fill-opacity: 0.5;
  stroke: #cccccc;
  stroke-linecap:round;
  stroke-linejoin:round;
  stroke-width: 3.0555;
}
.l4{
  fill: #88dd00;
  stroke: #88dd00;
  stroke-linecap:round;
  stroke-linejoin:round;
  stroke-width: 3.0555;
}
.l5{
  fill: #bb2200;
  stroke: #bb2200;
  stroke-linecap:round;
  stroke-linejoin:round;
  stroke-width: 3.0555;
}
.l6{
  fill: #00ccee; fill-opacity: 0.5;
  stroke: #00ccee;
  stroke-linecap:round;
  stroke-linejoin:round;
  stroke-width: 3.0555;
}
.l7{
  fill: #ff0000; fill-opacity: 0.5;
  stroke: #ff0000;
  stroke-linecap:round;
  stroke-linejoin:round;
  stroke-width: 3.0555;
}
.l8{
  fill: #ffff00; fill-opacity: 0.5;
  stroke: #ffff00;
  stroke-linecap:round;
  stroke-linejoin:round;
  stroke-width: 3.0555;
}
.l9{
  fill: #ffffff; fill-opacity: 0.5;
  stroke: #ffffff;
  stroke-linecap:round;
  stroke-linejoin:round;
  stroke-width: 3.0555;
}
.l10{
  fill: #ff00ff;
  stroke: #ff00ff;
  stroke-linecap:round;
  stroke-linejoin:round;
  stroke-width: 3.0555;
}
.l11{
  fill: #00ff00; fill-opacity: 0.5;
  stroke: #00ff00;
  stroke-linecap:round;
  stroke-linejoin:round;
  stroke-width: 3.0555;
}
.l12{
  fill: #0044dd; fill-opacity: 0.5;
  stroke: #0044dd;
  stroke-linecap:round;
  stroke-linejoin:round;
  stroke-width: 3.0555;
}
.l13{
  fill: #aaaa00; fill-opacity: 0.5;
  stroke: #aaaa00;
  stroke-linecap:round;
  stroke-linejoin:round;
  stroke-width: 3.0555;
}
.l14{
  fill: #aaccaa; fill-opacity: 0.2;
  stroke: #aaccaa;
  stroke-linecap:round;
  stroke-linejoin:round;
  stroke-width: 3.0555;
}
.l15{
  fill: #ff7777; fill-opacity: 0.5;
  stroke: #ff7777;
  stroke-linecap:round;
  stroke-linejoin:round;
  stroke-width: 3.0555;
}
.l16{
  fill: #bfff81; fill-opacity: 0.5;
  stroke: #bfff81;
  stroke-linecap:round;
  stroke-linejoin:round;
  stroke-width: 3.0555;
}
.l17{
  fill: #00ffcc; fill-opacity: 0.2;
  stroke: #00ffcc;
  stroke-linecap:round;
  stroke-linejoin:round;
  stroke-width: 3.0555;
}
.l18{
  fill: #ce0097; fill-opacity: 0.5;
  stroke: #ce0097;
  stroke-linecap:round;
  stroke-linejoin:round;
  stroke-width: 3.0555;
}
.l19{
  fill: #d2d46b; fill-opacity: 0.2;
  stroke: #d2d46b;
  stroke-linecap:round;
  stroke-linejoin:round;
  stroke-width: 3.0555;
}
.l20{
  fill: #ef6158; fill-opacity: 0.2;
  stroke: #ef6158;
  stroke-linecap:round;
  stroke-linejoin:round;
  stroke-width: 3.0555;
}
.l21{
  fill: #fdb200; fill-opacity: 0.2;
  stroke: #fdb200;
  stroke-linecap:round;
  stroke-linejoin:round;
  stroke-width: 3.0555;
}
text {font-family: Sans-Serif;}
</style>
<rect class="l0" x="0" y="0" width="1000" height="700"/>
<text fill="#cccccc"  xml:space="preserve" font-size="44.135" transform="translate(219.912, 373.1)" >@symname</text>
<text fill="#cccccc"  xml:space="preserve" font-size="29.4233" transform="translate(881.938, 3.26639)" >@name</text>
<text fill="#cccccc"  xml:space="preserve" font-size="29.4233" transform="translate(146.354, 54.1914)" >avdd</text>
<text fill="#cccccc"  xml:space="preserve" font-size="29.4233" transform="translate(751.646, 54.1914)" >porb_h</text>
<text fill="#cccccc"  xml:space="preserve" font-size="29.4233" transform="translate(785.646, 110.775)" >porb</text>
<text fill="#cccccc"  xml:space="preserve" font-size="29.4233" transform="translate(146.354, 110.775)" >avss</text>
<text fill="#cccccc"  xml:space="preserve" font-size="29.4233" transform="translate(146.354, 167.358)" >dvdd</text>
<text fill="#cccccc"  xml:space="preserve" font-size="29.4233" transform="translate(804.646, 167.358)" >por</text>
<text fill="#cccccc"  xml:space="preserve" font-size="29.4233" transform="translate(146.354, 223.941)" >dvss</text>
<text fill="#cccccc"  xml:space="preserve" font-size="29.4233" transform="translate(756.646, 223.941)" >osc_ck</text>
<text fill="#cccccc"  xml:space="preserve" font-size="29.4233" transform="translate(146.354, 280.525)" >vbg_1v2</text>
<text fill="#cccccc"  xml:space="preserve" font-size="29.4233" transform="translate(752.646, 280.525)" >dcomp</text>
<text fill="#cccccc"  xml:space="preserve" font-size="29.4233" transform="translate(146.354, 337.108)" >otrip[2:0]</text>
<text fill="#cccccc"  xml:space="preserve" font-size="29.4233" transform="translate(788.646, 337.108)" >itest</text>
<text fill="#cccccc"  xml:space="preserve" font-size="29.4233" transform="translate(146.354, 393.691)" >force_pdn</text>
<text fill="#cccccc"  xml:space="preserve" font-size="29.4233" transform="translate(719.646, 393.691)" >pwup_filt</text>
<text fill="#cccccc"  xml:space="preserve" font-size="29.4233" transform="translate(809.646, 450.275)" >vin</text>
<text fill="#cccccc"  xml:space="preserve" font-size="29.4233" transform="translate(146.354, 450.275)" >force_ena_rc_osc</text>
<text fill="#cccccc"  xml:space="preserve" font-size="29.4233" transform="translate(146.354, 506.858)" >force_dis_rc_osc</text>
<text fill="#cccccc"  xml:space="preserve" font-size="29.4233" transform="translate(581.646, 506.858)" >startup_timed_out</text>
<text fill="#cccccc"  xml:space="preserve" font-size="29.4233" transform="translate(639.646, 563.441)" >por_timed_out</text>
<text fill="#cccccc"  xml:space="preserve" font-size="29.4233" transform="translate(146.354, 563.441)" >force_short_oneshot</text>
<text fill="#cccccc"  xml:space="preserve" font-size="29.4233" transform="translate(146.354, 620.025)" >isrc_sel</text>
<text fill="#cccccc"  xml:space="preserve" font-size="29.4233" transform="translate(146.354, 676.608)" >ibg_200n</text>
<path class="l4" d="M132.208 10.5L867.792 10.5"/>
<path class="l4" d="M132.208 689.5L867.792 689.5"/>
<path class="l4" d="M132.208 10.5L132.208 689.5"/>
<path class="l4" d="M867.792 10.5L867.792 689.5"/>
<path class="l4" d="M75.625 38.7917L132.208 38.7917"/>
<path class="l4" d="M867.792 38.7917L924.375 38.7917"/>
<path class="l4" d="M867.792 95.375L924.375 95.375"/>
<path class="l4" d="M75.625 95.375L132.208 95.375"/>
<path class="l4" d="M75.625 151.958L132.208 151.958"/>
<path class="l4" d="M867.792 151.958L924.375 151.958"/>
<path class="l4" d="M75.625 208.542L132.208 208.542"/>
<path class="l4" d="M867.792 208.542L924.375 208.542"/>
<path class="l4" d="M75.625 265.125L132.208 265.125"/>
<path class="l4" d="M867.792 265.125L924.375 265.125"/>
<path class="l4" d="M75.625 321.708L132.208 321.708"/>
<path class="l4" d="M867.792 321.708L924.375 321.708"/>
<path class="l4" d="M75.625 378.292L132.208 378.292"/>
<path class="l4" d="M867.792 378.292L924.375 378.292"/>
<path class="l4" d="M867.792 434.875L924.375 434.875"/>
<path class="l4" d="M75.625 434.875L132.208 434.875"/>
<path class="l4" d="M75.625 491.458L132.208 491.458"/>
<path class="l4" d="M867.792 491.458L924.375 491.458"/>
<path class="l4" d="M867.792 548.042L924.375 548.042"/>
<path class="l4" d="M75.625 548.042L132.208 548.042"/>
<path class="l4" d="M75.625 604.625L132.208 604.625"/>
<path class="l4" d="M75.625 661.208L132.208 661.208"/>
<path class="l5" d="M68.5521 31.7188L82.6979 31.7188L82.6979 45.8646L68.5521 45.8646L68.5521 31.7188z"/>
<path class="l5" d="M917.302 31.7188L931.448 31.7188L931.448 45.8646L917.302 45.8646L917.302 31.7188z"/>
<path class="l5" d="M917.302 88.3021L931.448 88.3021L931.448 102.448L917.302 102.448L917.302 88.3021z"/>
<path class="l5" d="M68.5521 88.3021L82.6979 88.3021L82.6979 102.448L68.5521 102.448L68.5521 88.3021z"/>
<path class="l5" d="M68.5521 144.885L82.6979 144.885L82.6979 159.031L68.5521 159.031L68.5521 144.885z"/>
<path class="l5" d="M917.302 144.885L931.448 144.885L931.448 159.031L917.302 159.031L917.302 144.885z"/>
<path class="l5" d="M68.5521 201.469L82.6979 201.469L82.6979 215.615L68.5521 215.615L68.5521 201.469z"/>
<path class="l5" d="M917.302 201.469L931.448 201.469L931.448 215.615L917.302 215.615L917.302 201.469z"/>
<path class="l5" d="M68.5521 258.052L82.6979 258.052L82.6979 272.198L68.5521 272.198L68.5521 258.052z"/>
<path class="l5" d="M917.302 258.052L931.448 258.052L931.448 272.198L917.302 272.198L917.302 258.052z"/>
<path class="l5" d="M68.5521 314.635L82.6979 314.635L82.6979 328.781L68.5521 328.781L68.5521 314.635z"/>
<path class="l5" d="M917.302 314.635L931.448 314.635L931.448 328.781L917.302 328.781L917.302 314.635z"/>
<path class="l5" d="M68.5521 371.219L82.6979 371.219L82.6979 385.365L68.5521 385.365L68.5521 371.219z"/>
<path class="l5" d="M917.302 371.219L931.448 371.219L931.448 385.365L917.302 385.365L917.302 371.219z"/>
<path class="l5" d="M917.302 427.802L931.448 427.802L931.448 441.948L917.302 441.948L917.302 427.802z"/>
<path class="l5" d="M68.5521 427.802L82.6979 427.802L82.6979 441.948L68.5521 441.948L68.5521 427.802z"/>
<path class="l5" d="M68.5521 484.385L82.6979 484.385L82.6979 498.531L68.5521 498.531L68.5521 484.385z"/>
<path class="l5" d="M917.302 484.385L931.448 484.385L931.448 498.531L917.302 498.531L917.302 484.385z"/>
<path class="l5" d="M917.302 540.969L931.448 540.969L931.448 555.115L917.302 555.115L917.302 540.969z"/>
<path class="l5" d="M68.5521 540.969L82.6979 540.969L82.6979 555.115L68.5521 555.115L68.5521 540.969z"/>
<path class="l5" d="M68.5521 597.552L82.6979 597.552L82.6979 611.698L68.5521 611.698L68.5521 597.552z"/>
<path class="l5" d="M68.5521 654.135L82.6979 654.135L82.6979 668.281L68.5521 668.281L68.5521 654.135z"/>
</svg>
